<svg xmlns="http://www.w3.org/2000/svg" x="0px" y="0px" width="100" height="100" viewBox="0,0,256,256">
<g fill="none" fill-rule="nonzero" stroke="none" stroke-width="1" stroke-linecap="butt" stroke-linejoin="miter" stroke-miterlimit="10" stroke-dasharray="" stroke-dashoffset="0" font-family="none" font-weight="none" font-size="none" text-anchor="none" style="mix-blend-mode: normal"><g transform="scale(4,4)"><path d="M48.52,23.15c0.08008,-9.66498 -7.69002,-17.56492 -17.355,-17.645c-9.66498,-0.08008 -17.56492,7.69002 -17.645,17.355c-0.05,6.14 3.7,11.71 8.48,16.29v1.85c0,2.20914 1.79086,4 4,4h10c2.20914,0 4,-1.79086 4,-4v-1.91c4.75,-4.46 8.47,-9.93 8.52,-15.94z" fill="#fbec93"></path><path d="M17.18,15.05c0.49069,0.50011 1.17069,0.76829 1.87065,0.73778c0.69997,-0.03052 1.35404,-0.35686 1.79935,-0.89778c2.45589,-3.06676 6.16699,-4.85833 10.09588,-4.87386c3.92889,-0.01554 7.65405,1.74662 10.13412,4.79386c0.44668,0.53626 1.09938,0.85852 1.79672,0.8871c0.69734,0.02858 1.37422,-0.23919 1.86328,-0.7371v0c0.90992,-0.91729 0.97482,-2.37549 0.15,-3.37c-3.43348,-4.17625 -8.5623,-6.58802 -13.96873,-6.56864c-5.40643,0.01938 -10.51782,2.46787 -13.92127,6.66864c-0.81606,0.99536 -0.74694,2.44669 0.16,3.36z" fill="#faefde"></path><path transform="translate(62,117) rotate(180)" d="M29,57h4v3h-4z" fill="#acb7d0"></path><path transform="translate(62,102) rotate(180)" d="M29,45h4c3.31371,0 6,2.68629 6,6v6h-16v-6c0,-3.31371 2.68629,-6 6,-6z" fill="#c2cde7"></path><path d="M8,23c0,-0.55228 -0.44772,-1 -1,-1h-6c-0.55228,0 -1,0.44772 -1,1c0,0.55228 0.44772,1 1,1h6c0.55228,0 1,-0.44772 1,-1zM61,22h-6c-0.55228,0 -1,0.44772 -1,1c0,0.55228 0.44772,1 1,1h6c0.55228,0 1,-0.44772 1,-1c0,-0.55228 -0.44772,-1 -1,-1zM8.37,31.06l-3.71,1.5c-0.35256,0.11836 -0.61032,0.42259 -0.66916,0.78981c-0.05883,0.36722 0.09098,0.73675 0.38892,0.95933c0.29794,0.22258 0.69479,0.26143 1.03024,0.10086l3.71,-1.5c0.47671,-0.22818 0.69355,-0.78791 0.49499,-1.2777c-0.19856,-0.48979 -0.74396,-0.7405 -1.24499,-0.5723zM53.25,15c0.12665,0.00031 0.25221,-0.02345 0.37,-0.07l3.71,-1.5c0.47671,-0.22818 0.69355,-0.78791 0.49499,-1.2777c-0.19856,-0.48979 -0.74396,-0.7405 -1.24499,-0.5723l-3.71,1.5c-0.43521,0.18531 -0.68105,0.6502 -0.58922,1.11422c0.09184,0.46402 0.49623,0.80022 0.96922,0.80578zM9.12,13.08l-3.71,-1.5c-0.33545,-0.16057 -0.7323,-0.12172 -1.03024,0.10086c-0.29794,0.22258 -0.44775,0.59211 -0.38892,0.95933c0.05883,0.36722 0.31659,0.67145 0.66916,0.78981l3.71,1.5c0.50103,0.1682 1.04643,-0.08252 1.24499,-0.5723c0.19856,-0.48979 -0.01828,-1.04952 -0.49499,-1.2777zM57.34,32.56l-3.71,-1.5c-0.33545,-0.16057 -0.7323,-0.12172 -1.03024,0.10086c-0.29794,0.22258 -0.44775,0.59211 -0.38892,0.95933c0.05883,0.36722 0.31659,0.67145 0.66916,0.78981l3.71,1.5c0.50103,0.1682 1.04643,-0.08252 1.24499,-0.5723c0.19856,-0.48979 -0.01828,-1.04952 -0.49499,-1.2777zM34.29,26.29l-4,4c-0.18719,0.18872 -0.29154,0.4442 -0.29,0.71v6c0,0.55228 0.44772,1 1,1c0.55228,0 1,-0.44772 1,-1v-5.59l3.71,-3.71c0.33978,-0.39676 0.31693,-0.98819 -0.05244,-1.35756c-0.36937,-0.36937 -0.9608,-0.39221 -1.35756,-0.05244z" fill="#8d6c9f"></path><path d="M31,4c-10.49341,0 -19,8.50659 -19,19c0,5 2.78,8.69 5.47,12.28c2.15,2.88 4.18,5.61 4.53,8.72v0v7c0.00407,3.47658 2.55907,6.42335 6,6.92v1.08c0,1.10457 0.89543,2 2,2h2c1.10457,0 2,-0.89543 2,-2v-1.08c3.44093,-0.49665 5.99593,-3.44342 6,-6.92v-6.1c0,-3.5 2.22,-6.47 4.57,-9.62c2.67,-3.59 5.43,-7.28 5.43,-12.28c0,-10.49341 -8.50659,-19 -19,-19zM24,46h14v1.12l-14,1.75zM32,59h-2v-1h2zM33,56h-4c-2.76142,0 -5,-2.23858 -5,-5v-0.12l14,-1.75v1.87c0,0 0,0.08 0,0.12l-10.17,1.27c-0.55228,0.03314 -0.97314,0.50772 -0.94,1.06c0.03314,0.55228 0.50772,0.97314 1.06,0.94h0.13l9.39,-1.17c-0.84212,1.69948 -2.57333,2.77615 -4.47,2.78zM43,34.09c-2.24,3 -4.56,6.13 -4.92,9.85h-6.08v-2.94c0,-0.55228 -0.44772,-1 -1,-1c-0.55228,0 -1,0.44772 -1,1v2.94h-6c-0.36,-3.73 -2.69,-6.84 -5,-9.86c-2.42,-3.33 -5,-6.77 -5,-11.08c0,-9.38884 7.61116,-17 17,-17c9.38884,0 17,7.61116 17,17c0,4.31 -2.56,7.76 -5,11.09z" fill="#8d6c9f"></path><path d="M29.71,28.29l-2,-2c-0.39676,-0.33978 -0.98819,-0.31693 -1.35756,0.05244c-0.36937,0.36937 -0.39221,0.9608 -0.05244,1.35756l2,2c0.39676,0.33978 0.98819,0.31693 1.35756,-0.05244c0.36937,-0.36937 0.39221,-0.9608 0.05244,-1.35756zM38.23,11c-0.4614,-0.19019 -0.99239,-0.01108 -1.24432,0.41973c-0.25193,0.4308 -0.14767,0.9814 0.24432,1.29027c0.82954,0.50235 1.59512,1.1034 2.28,1.79c0.3988,0.2828 0.94362,0.23579 1.28809,-0.11115c0.34446,-0.34694 0.38757,-0.89208 0.10191,-1.28885c-0.80146,-0.80578 -1.69806,-1.51097 -2.67,-2.1zM33.18,11.2c0.55228,0.09941 1.08059,-0.26772 1.18,-0.82c0.09941,-0.55228 -0.26772,-1.08059 -0.82,-1.18c-3.55329,-0.65202 -7.22094,0.10087 -10.23,2.1c-0.46944,0.30376 -0.60376,0.93056 -0.3,1.4c0.30376,0.46944 0.93056,0.60376 1.4,0.3c2.58168,-1.70887 5.72392,-2.3538 8.77,-1.8z" fill="#8d6c9f"></path></g></g>
</svg>